<svg width="28" height="28" viewBox="0 0 28 28" fill="none" xmlns="http://www.w3.org/2000/svg">
<path d="M8.37584 11.1796C7.63777 11.7905 6.1919 11.0799 5.14639 9.59252C4.10088 8.10512 3.85165 6.40411 4.58971 5.79321C5.32778 5.18231 6.77365 5.89285 7.81916 7.38026C8.86467 8.86766 9.11391 10.5687 8.37584 11.1796Z" fill="#494949"/>
<path d="M11.9158 7.155C11.0157 7.40133 9.94433 6.13056 9.52276 4.31665C9.10119 2.50275 9.4891 0.832601 10.3892 0.586273C11.2893 0.339945 12.3607 1.61072 12.7822 3.42462C13.2038 5.23852 12.8159 6.90867 11.9158 7.155Z" fill="#494949"/>
<path d="M16.4103 6.59594C15.5125 6.34953 15.1428 4.68006 15.5845 2.86708C16.0262 1.05411 17.112 -0.215839 18.0098 0.0305764C18.9076 0.276992 19.2773 1.94646 18.8356 3.75944C18.3939 5.57241 17.3081 6.84236 16.4103 6.59594Z" fill="#494949"/>
<path d="M20.4604 11.2566C19.7056 10.6883 19.9125 8.97915 20.9226 7.43917C21.9327 5.89919 23.3635 5.11153 24.1183 5.67987C24.8731 6.24821 24.6662 7.95734 23.6561 9.49731C22.646 11.0373 21.2152 11.825 20.4604 11.2566Z" fill="#494949"/>
<path d="M14.5 28C12.4047 28 10.5654 27.5787 8.98226 26.7362C7.41463 25.8936 6.18847 24.7158 5.30377 23.2026C4.43459 21.6894 4 19.9184 4 17.8893C4 15.8603 8.11308 14.0659 8.98226 12.5527C9.86696 11.0396 10.6794 9.37051 12.0523 8.1819C12.3887 7.89062 12.4047 7.4956 14.5 7.4956C16.5953 7.4956 16.8661 8.07193 17.0197 8.1819C18.6437 9.34496 19.3189 11.0396 20.1881 12.5527C21.0728 14.0659 25 15.8603 25 17.8893C25 19.9184 24.5576 21.6894 23.6729 23.2026C22.8038 24.7158 21.5776 25.8936 19.9945 26.7362C18.4268 27.5787 16.5953 28 14.5 28ZM14.5 22.661C15.5399 22.661 16.4324 22.4718 17.1774 22.0935C17.9379 21.698 18.52 21.1478 18.9235 20.4428C19.3271 19.7206 19.5288 18.8695 19.5288 17.8893C19.5288 16.9092 19.3271 16.0667 18.9235 15.3617C18.52 14.6395 17.9379 14.0893 17.1774 13.711C16.4324 13.3155 15.5399 13.1177 14.5 13.1177C13.4601 13.1177 12.5599 13.3155 11.7993 13.711C11.0543 14.0893 10.48 14.6395 10.0765 15.3617C9.67295 16.0667 9.47118 16.9092 9.47118 17.8893C9.47118 18.8695 9.67295 19.7206 10.0765 20.4428C10.48 21.1478 11.0543 21.698 11.7993 22.0935C12.5599 22.4718 13.4601 22.661 14.5 22.661Z" fill="#494949"/>
</svg>
